<?xml version="1.0" encoding="UTF-8" standalone="no"?>
<!-- Created with Inkscape (http://www.inkscape.org/) -->

<svg
   xmlns:dc="http://purl.org/dc/elements/1.1/"
   xmlns:cc="http://creativecommons.org/ns#"
   xmlns:rdf="http://www.w3.org/1999/02/22-rdf-syntax-ns#"
   xmlns:svg="http://www.w3.org/2000/svg"
   xmlns="http://www.w3.org/2000/svg"
   xmlns:sodipodi="http://sodipodi.sourceforge.net/DTD/sodipodi-0.dtd"
   xmlns:inkscape="http://www.inkscape.org/namespaces/inkscape"
   id="svg3039"
   version="1.1"
   inkscape:version="0.48.4 r9939"
   width="512"
   height="512"
   sodipodi:docname="marker.svg">
  <metadata
     id="metadata3045">
    <rdf:RDF>
      <cc:Work
         rdf:about="">
        <dc:format>image/svg+xml</dc:format>
        <dc:type
           rdf:resource="http://purl.org/dc/dcmitype/StillImage" />
        <dc:title></dc:title>
      </cc:Work>
    </rdf:RDF>
  </metadata>
  <defs
     id="defs3043" />
  <sodipodi:namedview
     pagecolor="#ffffff"
     bordercolor="#666666"
     borderopacity="1"
     objecttolerance="10"
     gridtolerance="10"
     guidetolerance="10"
     inkscape:pageopacity="0"
     inkscape:pageshadow="2"
     inkscape:window-width="1325"
     inkscape:window-height="744"
     id="namedview3041"
     showgrid="false"
     inkscape:zoom="0.5"
     inkscape:cx="373.23357"
     inkscape:cy="56.600816"
     inkscape:window-x="41"
     inkscape:window-y="24"
     inkscape:window-maximized="1"
     inkscape:current-layer="svg3039" />
  <path
     style="fill:#27ab58;fill-rule:evenodd;stroke:none;fill-opacity:1"
     d="m 254.58578,37.375602 c -76.02103,0 -137.65625,61.26513 -137.65625,136.812498 0,5.93402 0.38745,11.76523 1.125,17.5 l -0.0313,0 c 0,0 2.62438,51.76475 53.25,130.34375 50.62563,78.579 83.65625,112.34375 83.65625,112.34375 l 0,-0.0937 c 0,0 32.99937,-33.9835 83.625,-112.5625 50.62562,-78.579 53.25,-130.34375 53.25,-130.34375 l -0.65625,-0.0937 c 0.70392,-5.60554 1.09375,-11.2987 1.09375,-17.09375 0,-75.547368 -61.63522,-136.812498 -137.65625,-136.812498 z"
     id="path3049"
     inkscape:connector-curvature="0" />
  <path
     sodipodi:type="arc"
     style="fill:#ffffff;stroke:none"
     id="path3888"
     sodipodi:cx="278.60007"
     sodipodi:cy="183.90245"
     sodipodi:rx="103.23759"
     sodipodi:ry="108.89445"
     d="m 381.83765,183.90245 a 103.23759,108.89445 0 1 1 -206.47517,0 103.23759,108.89445 0 1 1 206.47517,0 z"
     transform="matrix(0.93150684,0,0,0.88311689,-4.9594366,14.424022)" />
  <path
     style="fill:#000000"
     d="m 242.86264,226.58953 c -0.70288,-0.75417 -0.82616,-2.15952 -0.82616,-9.41766 0,-7.10933 -0.13075,-8.65815 -0.78443,-9.29292 -0.67811,-0.65847 -2.80553,-0.76173 -15.69501,-0.76173 -8.90615,0 -15.0289,-0.18593 -15.20442,-0.46171 -0.16162,-0.25393 2.63567,-5.37529 6.21622,-11.38079 7.89628,-13.2441 7.92007,-13.29145 6.96926,-13.87559 -0.39623,-0.24343 -2.46133,-0.44594 -4.58912,-0.45003 -2.75913,-0.005 -3.86819,-0.1812 -3.86683,-0.61333 9.9e-4,-0.33326 3.48288,-6.46017 7.73742,-13.61537 4.25456,-7.15521 7.73556,-13.31736 7.73556,-13.69369 0,-0.49207 -0.66589,-0.68631 -2.37115,-0.69165 -2.81349,-0.009 -3.85146,-0.53171 -3.51743,-1.772 0.13466,-0.50005 3.08713,-5.67905 6.56104,-11.50888 3.47389,-5.82982 6.31619,-10.8729 6.31619,-11.20686 0,-0.8653 -1.18362,-1.19565 -4.28394,-1.19565 -2.25011,0 -2.70162,-0.14257 -2.68634,-0.84827 0.0284,-1.31273 23.09048,-38.154196 23.98364,-38.31371 0.56367,-0.100714 4.17934,5.34649 12.63146,19.02974 6.51295,10.54394 11.70403,19.38712 11.53575,19.65152 -0.16828,0.26439 -1.61301,0.48072 -3.21052,0.48072 -4.90845,0 -4.91555,-0.0356 2.46136,12.33742 3.59592,6.03128 6.67282,11.30703 6.83755,11.72388 0.4239,1.07268 -0.72155,1.61348 -3.43563,1.62209 -1.28793,0.003 -2.47723,0.22038 -2.6429,0.48067 -0.16566,0.26028 3.19061,6.34247 7.45838,13.51597 4.26777,7.17351 7.75958,13.39537 7.75958,13.82637 0,0.64615 -0.60581,0.78361 -3.4535,0.78361 -4.00558,0 -5.03319,0.28285 -5.0315,1.38488 5.1e-4,0.43802 3.03327,5.89242 6.73907,12.12089 3.70581,6.22845 6.73783,11.62716 6.73783,11.99713 0,0.55875 -2.53547,0.67264 -14.97568,0.67264 -14.31009,0 -15.02005,0.0431 -15.97406,0.96947 -0.92428,0.89751 -0.99838,1.61578 -0.99838,9.67759 0,8.11337 -0.0659,8.74239 -0.96556,9.20991 -0.57935,0.30108 -5.24068,0.50179 -11.65358,0.50179 -9.72042,0 -10.76281,-0.0802 -11.51417,-0.88645 z m -49.64687,-3.57308 c -0.40537,-0.39363 -0.59903,-2.64913 -0.59903,-6.97677 0,-5.38431 -0.1248,-6.44158 -0.78962,-6.6893 -0.43427,-0.16184 -5.61736,-0.29422 -11.51795,-0.29422 -8.5489,0 -10.69556,-0.12793 -10.56693,-0.62972 0.0888,-0.34634 2.37342,-4.36826 5.077,-8.9376 2.70357,-4.56935 4.7682,-8.53949 4.58804,-8.82257 -0.18016,-0.28307 -1.66213,-0.51468 -3.29325,-0.51468 -1.63112,0 -2.96567,-0.19212 -2.96567,-0.42694 0,-0.23482 2.56863,-4.75036 5.70805,-10.03453 3.13944,-5.28419 5.59717,-9.78185 5.46162,-9.99481 -0.13554,-0.21296 -1.13171,-0.3872 -2.21373,-0.3872 -1.47626,0 -1.96729,-0.19493 -1.96729,-0.78102 0,-0.42956 2.1358,-4.37394 4.74622,-8.76531 2.61041,-4.39137 4.61887,-8.18438 4.46324,-8.4289 -0.15564,-0.24452 -1.26733,-0.4446 -2.47041,-0.4446 -1.20308,0 -2.31781,-0.20484 -2.47715,-0.4552 -0.35521,-0.5581 16.75287,-28.13845 17.45628,-28.14168 0.6544,-0.003 17.74658,27.67474 17.41349,28.19807 -0.1396,0.21934 -1.23818,0.39881 -2.44125,0.39881 -1.20309,0 -2.31965,0.20772 -2.48123,0.46161 -0.16157,0.25387 1.17297,2.92028 2.96567,5.92534 1.79271,3.00507 3.25947,5.61344 3.25947,5.79639 0,0.18295 -2.02171,3.71717 -4.49269,7.85382 -4.53381,7.59002 -5.15032,9.37154 -3.97873,11.49729 0.68151,1.23655 3.0675,2.39681 4.92878,2.39681 l 1.49883,0 -5.96674,10.05704 c -3.4653,5.84084 -5.96674,10.58897 -5.96674,11.32584 0,1.52886 1.68297,3.73135 3.31028,4.33214 1.15176,0.4252 1.18241,0.58516 1.18241,6.16836 0,3.81178 -0.20065,5.9267 -0.59902,6.31353 -0.4163,0.40423 -3.0506,0.58166 -8.63597,0.58166 -5.58539,0 -8.21968,-0.17743 -8.63598,-0.58166 z m 104.56352,0.25851 c -0.18303,-0.17772 -0.33279,-2.98977 -0.33279,-6.24896 l 0,-5.92582 1.29096,-0.31463 c 0.71003,-0.17304 1.83321,-0.84116 2.49595,-1.4847 2.29007,-2.22376 1.80768,-3.75804 -4.53569,-14.42608 -3.15739,-5.30995 -5.74069,-9.7159 -5.74069,-9.79101 0,-0.0751 0.95471,-0.26089 2.12156,-0.41284 2.85439,-0.37168 5.09104,-2.68615 4.72315,-4.88749 -0.13878,-0.83045 -2.41856,-5.15404 -5.06616,-9.60797 l -4.81383,-8.09805 3.01521,-5.01916 c 1.65837,-2.76054 3.01521,-5.27809 3.01521,-5.59457 0,-0.36731 -0.90257,-0.5754 -2.49595,-0.5754 -2.05405,0 -2.49141,-0.15018 -2.47033,-0.84828 0.031,-1.02583 16.47442,-27.37698 17.22795,-27.60837 0.67996,-0.20878 17.8476,27.33167 17.43834,27.97469 -0.16872,0.26508 -1.29109,0.48196 -2.49419,0.48196 -1.20309,0 -2.30359,0.18252 -2.44557,0.4056 -0.14198,0.22306 1.97938,4.16931 4.71413,8.76942 2.73475,4.60012 4.84612,8.56208 4.69192,8.80433 -0.15419,0.24226 -1.16563,0.44048 -2.24764,0.44048 -1.37058,0 -1.9673,0.20967 -1.9673,0.69126 0,0.3802 2.47099,4.83871 5.49108,9.9078 3.0201,5.06909 5.49109,9.44781 5.49109,9.73048 0,0.30444 -1.20899,0.51394 -2.96567,0.51394 -1.63113,0 -3.10967,0.22624 -3.28566,0.50275 -0.17599,0.2765 1.94479,4.30477 4.71283,8.9517 2.76806,4.64692 5.03282,8.67422 5.03282,8.94954 0,0.32897 -3.73065,0.50058 -10.88233,0.50058 -7.79844,0 -11.05208,0.16483 -11.48136,0.58167 -0.40053,0.38894 -0.59902,2.54412 -0.59902,6.50424 0,3.25741 -0.13635,6.2676 -0.30299,6.6893 -0.2596,0.65689 -1.49936,0.76674 -8.65263,0.76674 -4.59228,0 -8.49937,-0.14541 -8.6824,-0.32315 z"
     id="path3976-1"
     inkscape:connector-curvature="0" />
</svg>
